<?xml version="1.0" encoding="UTF-8" standalone="no"?><!DOCTYPE svg PUBLIC "-//W3C//DTD SVG 1.1//EN" "http://www.w3.org/Graphics/SVG/1.1/DTD/svg11.dtd"><svg width="100%" height="100%" viewBox="0 0 5334 3000" version="1.1" xmlns="http://www.w3.org/2000/svg" xmlns:xlink="http://www.w3.org/1999/xlink" xml:space="preserve" xmlns:serif="http://www.serif.com/" style="fill-rule:evenodd;clip-rule:evenodd;stroke-linecap:round;stroke-linejoin:round;stroke-miterlimit:1.5;"><g transform="matrix(4.16667,0,0,4.16667,0,0)"><g id="Paket-4" serif:id="Paket 4" transform="matrix(1.52762,0,0,1.59213,35.7944,78.5524)"><g transform="matrix(0.561026,0,0,0.587244,117.744,69.8593)"><rect x="-18.274" y="91.15" width="87.511" height="80.217" style="fill:#f4c54e;"/></g><g transform="matrix(1,0,0,1,-178.133,-74.1294)"><rect x="303.769" y="197.516" width="12.806" height="13.92" style="fill:#ff9500;"/></g></g><g id="Paket-3" serif:id="Paket 3" transform="matrix(1.52762,0,0,1.59213,-64.2056,78.5524)"><g transform="matrix(0.561026,0,0,0.587244,117.744,69.8593)"><rect x="-18.274" y="91.15" width="87.511" height="80.217" style="fill:#f4c54e;"/></g><g transform="matrix(1,0,0,1,-178.133,-74.1294)"><rect x="303.769" y="197.516" width="12.806" height="13.92" style="fill:#ff9500;"/></g></g><g id="Paket-2" serif:id="Paket 2" transform="matrix(1.52762,0,0,1.59213,-164.206,78.5524)"><g transform="matrix(0.561026,0,0,0.587244,117.744,69.8593)"><rect x="-18.274" y="91.15" width="87.511" height="80.217" style="fill:#f4c54e;"/></g><g transform="matrix(1,0,0,1,-178.133,-74.1294)"><rect x="303.769" y="197.516" width="12.806" height="13.92" style="fill:#ff9500;"/></g></g><g id="Paket-1" serif:id="Paket 1" transform="matrix(1.52762,0,0,1.52762,289.794,89.5518)"><g transform="matrix(0.561026,0,0,0.587244,117.744,69.8593)"><rect x="-18.274" y="91.15" width="87.511" height="80.217" style="fill:#f4c54e;"/></g><g transform="matrix(1,0,0,1,-178.133,-74.1294)"><rect x="303.769" y="197.516" width="12.806" height="13.92" style="fill:#ff9500;"/></g></g><g id="Belt" transform="matrix(1.70269,0,0,1.11668,-9.37226,167.378)"><g transform="matrix(0.778963,0,0,1.36909,19.4425,-67.7697)"><rect x="41.717" y="180.255" width="61.286" height="11.126" style="fill:#939393;"/></g><g transform="matrix(0.778963,0,0,1.36909,76.1857,-68.5067)"><rect x="41.717" y="180.255" width="61.286" height="11.126" style="fill:#939393;"/></g><g transform="matrix(0.325412,0.208662,-0.879499,0.563957,315.512,67.4477)"><rect x="41.717" y="180.255" width="61.286" height="11.126" style="fill:#939393;"/></g><g transform="matrix(-2.48382e-17,0.239385,-1.03043,2.10685e-17,382.104,190.498)"><rect x="41.717" y="180.255" width="61.286" height="11.126" style="fill:#939393;"/></g><g transform="matrix(-0.298078,0.2009,-0.930076,-0.567401,370.46,317.421)"><rect x="41.717" y="180.255" width="61.286" height="11.126" style="fill:#939393;"/></g><g transform="matrix(0.778963,0,0,1.36909,-36.9905,-66.5163)"><rect x="41.717" y="180.255" width="61.286" height="11.126" style="fill:#939393;"/></g><g transform="matrix(0.778963,0,0,1.12331,20.3282,21.8413)"><rect x="41.717" y="180.255" width="61.286" height="11.126" style="fill:#939393;"/></g><g transform="matrix(0.778963,0,0,1.12331,77.0714,21.2367)"><rect x="41.717" y="180.255" width="61.286" height="11.126" style="fill:#939393;"/></g><g transform="matrix(0.778963,0,0,1.12331,-36.1048,22.8697)"><rect x="41.717" y="180.255" width="61.286" height="11.126" style="fill:#939393;"/></g></g><g id="Infoanzeige" transform="matrix(1.45856,0,0,1.45856,50.8072,-8.28473)"><g transform="matrix(1.27386,0,0,1.64286,-94.0986,-152.929)"><rect x="359.224" y="190.016" width="116.253" height="71.362" style="fill:none;stroke:#000;stroke-width:1.4px;"/></g><g transform="matrix(1.00393,0,0,1,0.0633227,-17.644)"><text x="369.762px" y="195.92px" style="font-family:'ArialMT', 'Arial', sans-serif;font-size:12px;">Brief</text><text x="369.762px" y="210.32px" style="font-family:'ArialMT', 'Arial', sans-serif;font-size:12px;">64285 Darmstadt</text><text x="369.762px" y="224.72px" style="font-family:'ArialMT', 'Arial', sans-serif;font-size:12px;">Deutschland</text><text x="369.762px" y="239.12px" style="font-family:'ArialMT', 'Arial', sans-serif;font-size:12px;">Faktor</text><text x="369.762px" y="253.52px" style="font-family:'ArialMT', 'Arial', sans-serif;font-size:12px;">Faktor</text><text x="369.762px" y="267.92px" style="font-family:'ArialMT', 'Arial', sans-serif;font-size:12px;">Faktor</text><text x="369.762px" y="282.32px" style="font-family:'ArialMT', 'Arial', sans-serif;font-size:12px;">Faktor</text></g></g><g id="LKW-12" serif:id="LKW 12" transform="matrix(1.16636,0,0,1.16373,394.726,23.6709)"><g transform="matrix(1,0,0,1,381.687,-343.496)"><rect x="70.883" y="368.221" width="57.798" height="40.656" style="fill:#4e8df4;"/></g><g transform="matrix(1.03816,0,0,1,375.317,-347.805)"><rect x="47.918" y="414.592" width="80.926" height="6.778" style="fill:#6c6c6c;"/></g><g transform="matrix(1.16486,0,0,1.4854,375.008,-538.15)"><rect x="42.601" y="387.82" width="21.649" height="18.344" style="fill:#ababab;"/></g><g transform="matrix(1.03254,0,0,1.29313,383.84,-450.717)"><path d="M63.591,367.372L63.591,376.56L40.062,376.56L63.591,367.372Z" style="fill:#ababab;"/></g><g transform="matrix(0.941046,0,0,1.06052,383.841,-376.118)"><ellipse cx="62.351" cy="432.444" rx="7.97" ry="7.072" style="fill:#6c6c6c;"/></g><g transform="matrix(0.941046,0,0,1.06052,437.4,-375.607)"><ellipse cx="62.351" cy="432.444" rx="7.97" ry="7.072" style="fill:#6c6c6c;"/></g><g transform="matrix(1,0,0,1,299.614,-327.733)"><text x="165.214px" y="379.91px" style="font-family:'Arial-BoldMT', 'Arial', sans-serif;font-weight:700;font-size:24px;fill:#fff;">12</text></g></g><g id="LKW-11" serif:id="LKW 11" transform="matrix(1.16636,0,0,1.16373,254.726,-1.32913)"><g transform="matrix(1,0,0,1,381.687,-343.496)"><rect x="70.883" y="368.221" width="57.798" height="40.656" style="fill:#4e8df4;"/></g><g transform="matrix(1.03816,0,0,1,375.317,-347.805)"><rect x="47.918" y="414.592" width="80.926" height="6.778" style="fill:#6c6c6c;"/></g><g transform="matrix(1.16486,0,0,1.4854,375.008,-538.15)"><rect x="42.601" y="387.82" width="21.649" height="18.344" style="fill:#ababab;"/></g><g transform="matrix(1.03254,0,0,1.29313,383.84,-450.717)"><path d="M63.591,367.372L63.591,376.56L40.062,376.56L63.591,367.372Z" style="fill:#ababab;"/></g><g transform="matrix(0.941046,0,0,1.06052,383.841,-376.118)"><ellipse cx="62.351" cy="432.444" rx="7.97" ry="7.072" style="fill:#6c6c6c;"/></g><g transform="matrix(0.941046,0,0,1.06052,437.4,-375.607)"><ellipse cx="62.351" cy="432.444" rx="7.97" ry="7.072" style="fill:#6c6c6c;"/></g><g transform="matrix(1,0,0,1,299.614,-327.733)"><text x="165.214px" y="379.91px" style="font-family:'Arial-BoldMT', 'Arial', sans-serif;font-weight:700;font-size:24px;fill:#fff;">1<tspan x="177.237px " y="379.91px ">1</tspan></text></g></g><g id="LKW-10" serif:id="LKW 10" transform="matrix(1.16636,0,0,1.16373,100.726,23.6709)"><g transform="matrix(1,0,0,1,381.687,-343.496)"><rect x="70.883" y="368.221" width="57.798" height="40.656" style="fill:#4e8df4;"/></g><g transform="matrix(1.03816,0,0,1,375.317,-347.805)"><rect x="47.918" y="414.592" width="80.926" height="6.778" style="fill:#6c6c6c;"/></g><g transform="matrix(1.16486,0,0,1.4854,375.008,-538.15)"><rect x="42.601" y="387.82" width="21.649" height="18.344" style="fill:#ababab;"/></g><g transform="matrix(1.03254,0,0,1.29313,383.84,-450.717)"><path d="M63.591,367.372L63.591,376.56L40.062,376.56L63.591,367.372Z" style="fill:#ababab;"/></g><g transform="matrix(0.941046,0,0,1.06052,383.841,-376.118)"><ellipse cx="62.351" cy="432.444" rx="7.97" ry="7.072" style="fill:#6c6c6c;"/></g><g transform="matrix(0.941046,0,0,1.06052,437.4,-375.607)"><ellipse cx="62.351" cy="432.444" rx="7.97" ry="7.072" style="fill:#6c6c6c;"/></g><g transform="matrix(1,0,0,1,299.614,-327.733)"><text x="165.214px" y="379.91px" style="font-family:'Arial-BoldMT', 'Arial', sans-serif;font-weight:700;font-size:24px;fill:#fff;">10</text></g></g><g id="LKW-20" serif:id="LKW 20" transform="matrix(1.16636,0,0,1.16373,89.7258,498.671)"><g transform="matrix(1,0,0,1,381.687,-343.496)"><rect x="70.883" y="368.221" width="57.798" height="40.656" style="fill:#4e8df4;"/></g><g transform="matrix(1.03816,0,0,1,375.317,-347.805)"><rect x="47.918" y="414.592" width="80.926" height="6.778" style="fill:#6c6c6c;"/></g><g transform="matrix(1.16486,0,0,1.4854,375.008,-538.15)"><rect x="42.601" y="387.82" width="21.649" height="18.344" style="fill:#ababab;"/></g><g transform="matrix(1.03254,0,0,1.29313,383.84,-450.717)"><path d="M63.591,367.372L63.591,376.56L40.062,376.56L63.591,367.372Z" style="fill:#ababab;"/></g><g transform="matrix(0.941046,0,0,1.06052,383.841,-376.118)"><ellipse cx="62.351" cy="432.444" rx="7.97" ry="7.072" style="fill:#6c6c6c;"/></g><g transform="matrix(0.941046,0,0,1.06052,437.4,-375.607)"><ellipse cx="62.351" cy="432.444" rx="7.97" ry="7.072" style="fill:#6c6c6c;"/></g><g transform="matrix(1,0,0,1,299.614,-327.733)"><text x="165.214px" y="379.91px" style="font-family:'Arial-BoldMT', 'Arial', sans-serif;font-weight:700;font-size:24px;fill:#fff;">20</text></g></g><g id="LKW-13" serif:id="LKW 13" transform="matrix(1.16636,0,0,1.16373,501.726,98.6709)"><g transform="matrix(1,0,0,1,381.687,-343.496)"><rect x="70.883" y="368.221" width="57.798" height="40.656" style="fill:#4e8df4;"/></g><g transform="matrix(1.03816,0,0,1,375.317,-347.805)"><rect x="47.918" y="414.592" width="80.926" height="6.778" style="fill:#6c6c6c;"/></g><g transform="matrix(1.16486,0,0,1.4854,375.008,-538.15)"><rect x="42.601" y="387.82" width="21.649" height="18.344" style="fill:#ababab;"/></g><g transform="matrix(1.03254,0,0,1.29313,383.84,-450.717)"><path d="M63.591,367.372L63.591,376.56L40.062,376.56L63.591,367.372Z" style="fill:#ababab;"/></g><g transform="matrix(0.941046,0,0,1.06052,383.841,-376.118)"><ellipse cx="62.351" cy="432.444" rx="7.97" ry="7.072" style="fill:#6c6c6c;"/></g><g transform="matrix(0.941046,0,0,1.06052,437.4,-375.607)"><ellipse cx="62.351" cy="432.444" rx="7.97" ry="7.072" style="fill:#6c6c6c;"/></g><g transform="matrix(1,0,0,1,299.614,-327.733)"><text x="165.214px" y="379.91px" style="font-family:'Arial-BoldMT', 'Arial', sans-serif;font-weight:700;font-size:24px;fill:#fff;">13</text></g></g><g id="LKW-15" serif:id="LKW 15" transform="matrix(1.16636,0,0,1.16373,567.726,298.671)"><g transform="matrix(1,0,0,1,381.687,-343.496)"><rect x="70.883" y="368.221" width="57.798" height="40.656" style="fill:#4e8df4;"/></g><g transform="matrix(1.03816,0,0,1,375.317,-347.805)"><rect x="47.918" y="414.592" width="80.926" height="6.778" style="fill:#6c6c6c;"/></g><g transform="matrix(1.16486,0,0,1.4854,375.008,-538.15)"><rect x="42.601" y="387.82" width="21.649" height="18.344" style="fill:#ababab;"/></g><g transform="matrix(1.03254,0,0,1.29313,383.84,-450.717)"><path d="M63.591,367.372L63.591,376.56L40.062,376.56L63.591,367.372Z" style="fill:#ababab;"/></g><g transform="matrix(0.941046,0,0,1.06052,383.841,-376.118)"><ellipse cx="62.351" cy="432.444" rx="7.97" ry="7.072" style="fill:#6c6c6c;"/></g><g transform="matrix(0.941046,0,0,1.06052,437.4,-375.607)"><ellipse cx="62.351" cy="432.444" rx="7.97" ry="7.072" style="fill:#6c6c6c;"/></g><g transform="matrix(1,0,0,1,299.614,-327.733)"><text x="165.214px" y="379.91px" style="font-family:'Arial-BoldMT', 'Arial', sans-serif;font-weight:700;font-size:24px;fill:#fff;">15</text></g></g><g id="LKW-14" serif:id="LKW 14" transform="matrix(1.16636,0,0,1.16373,560.686,198.671)"><g transform="matrix(1,0,0,1,381.687,-343.496)"><rect x="70.883" y="368.221" width="57.798" height="40.656" style="fill:#4e8df4;"/></g><g transform="matrix(1.03816,0,0,1,375.317,-347.805)"><rect x="47.918" y="414.592" width="80.926" height="6.778" style="fill:#6c6c6c;"/></g><g transform="matrix(1.16486,0,0,1.4854,375.008,-538.15)"><rect x="42.601" y="387.82" width="21.649" height="18.344" style="fill:#ababab;"/></g><g transform="matrix(1.03254,0,0,1.29313,383.84,-450.717)"><path d="M63.591,367.372L63.591,376.56L40.062,376.56L63.591,367.372Z" style="fill:#ababab;"/></g><g transform="matrix(0.941046,0,0,1.06052,383.841,-376.118)"><ellipse cx="62.351" cy="432.444" rx="7.97" ry="7.072" style="fill:#6c6c6c;"/></g><g transform="matrix(0.941046,0,0,1.06052,437.4,-375.607)"><ellipse cx="62.351" cy="432.444" rx="7.97" ry="7.072" style="fill:#6c6c6c;"/></g><g transform="matrix(1,0,0,1,299.614,-327.733)"><text x="165.214px" y="379.91px" style="font-family:'Arial-BoldMT', 'Arial', sans-serif;font-weight:700;font-size:24px;fill:#fff;">14</text></g></g><g id="LKW-16" serif:id="LKW 16" transform="matrix(1.16636,0,0,1.16373,541.726,398.671)"><g transform="matrix(1,0,0,1,381.687,-343.496)"><rect x="70.883" y="368.221" width="57.798" height="40.656" style="fill:#4e8df4;"/></g><g transform="matrix(1.03816,0,0,1,375.317,-347.805)"><rect x="47.918" y="414.592" width="80.926" height="6.778" style="fill:#6c6c6c;"/></g><g transform="matrix(1.16486,0,0,1.4854,375.008,-538.15)"><rect x="42.601" y="387.82" width="21.649" height="18.344" style="fill:#ababab;"/></g><g transform="matrix(1.03254,0,0,1.29313,383.84,-450.717)"><path d="M63.591,367.372L63.591,376.56L40.062,376.56L63.591,367.372Z" style="fill:#ababab;"/></g><g transform="matrix(0.941046,0,0,1.06052,383.841,-376.118)"><ellipse cx="62.351" cy="432.444" rx="7.97" ry="7.072" style="fill:#6c6c6c;"/></g><g transform="matrix(0.941046,0,0,1.06052,437.4,-375.607)"><ellipse cx="62.351" cy="432.444" rx="7.97" ry="7.072" style="fill:#6c6c6c;"/></g><g transform="matrix(1,0,0,1,299.614,-327.733)"><text x="165.214px" y="379.91px" style="font-family:'Arial-BoldMT', 'Arial', sans-serif;font-weight:700;font-size:24px;fill:#fff;">16</text></g></g><g id="LKW-17" serif:id="LKW 17" transform="matrix(1.16636,0,0,1.16373,489.726,498.671)"><g transform="matrix(1,0,0,1,381.687,-343.496)"><rect x="70.883" y="368.221" width="57.798" height="40.656" style="fill:#4e8df4;"/></g><g transform="matrix(1.03816,0,0,1,375.317,-347.805)"><rect x="47.918" y="414.592" width="80.926" height="6.778" style="fill:#6c6c6c;"/></g><g transform="matrix(1.16486,0,0,1.4854,375.008,-538.15)"><rect x="42.601" y="387.82" width="21.649" height="18.344" style="fill:#ababab;"/></g><g transform="matrix(1.03254,0,0,1.29313,383.84,-450.717)"><path d="M63.591,367.372L63.591,376.56L40.062,376.56L63.591,367.372Z" style="fill:#ababab;"/></g><g transform="matrix(0.941046,0,0,1.06052,383.841,-376.118)"><ellipse cx="62.351" cy="432.444" rx="7.97" ry="7.072" style="fill:#6c6c6c;"/></g><g transform="matrix(0.941046,0,0,1.06052,437.4,-375.607)"><ellipse cx="62.351" cy="432.444" rx="7.97" ry="7.072" style="fill:#6c6c6c;"/></g><g transform="matrix(1,0,0,1,299.614,-327.733)"><text x="165.214px" y="379.91px" style="font-family:'Arial-BoldMT', 'Arial', sans-serif;font-weight:700;font-size:24px;fill:#fff;">17</text></g></g><g id="LKW-18" serif:id="LKW 18" transform="matrix(1.16636,0,0,1.16373,369.726,573.671)"><g transform="matrix(1,0,0,1,381.687,-343.496)"><rect x="70.883" y="368.221" width="57.798" height="40.656" style="fill:#4e8df4;"/></g><g transform="matrix(1.03816,0,0,1,375.317,-347.805)"><rect x="47.918" y="414.592" width="80.926" height="6.778" style="fill:#6c6c6c;"/></g><g transform="matrix(1.16486,0,0,1.4854,375.008,-538.15)"><rect x="42.601" y="387.82" width="21.649" height="18.344" style="fill:#ababab;"/></g><g transform="matrix(1.03254,0,0,1.29313,383.84,-450.717)"><path d="M63.591,367.372L63.591,376.56L40.062,376.56L63.591,367.372Z" style="fill:#ababab;"/></g><g transform="matrix(0.941046,0,0,1.06052,383.841,-376.118)"><ellipse cx="62.351" cy="432.444" rx="7.97" ry="7.072" style="fill:#6c6c6c;"/></g><g transform="matrix(0.941046,0,0,1.06052,437.4,-375.607)"><ellipse cx="62.351" cy="432.444" rx="7.97" ry="7.072" style="fill:#6c6c6c;"/></g><g transform="matrix(1,0,0,1,299.614,-327.733)"><text x="165.214px" y="379.91px" style="font-family:'Arial-BoldMT', 'Arial', sans-serif;font-weight:700;font-size:24px;fill:#fff;">18</text></g></g><g id="LKW-19" serif:id="LKW 19" transform="matrix(1.16636,0,0,1.16373,194.726,571.671)"><g transform="matrix(1,0,0,1,381.687,-343.496)"><rect x="70.883" y="368.221" width="57.798" height="40.656" style="fill:#4e8df4;"/></g><g transform="matrix(1.03816,0,0,1,375.317,-347.805)"><rect x="47.918" y="414.592" width="80.926" height="6.778" style="fill:#6c6c6c;"/></g><g transform="matrix(1.16486,0,0,1.4854,375.008,-538.15)"><rect x="42.601" y="387.82" width="21.649" height="18.344" style="fill:#ababab;"/></g><g transform="matrix(1.03254,0,0,1.29313,383.84,-450.717)"><path d="M63.591,367.372L63.591,376.56L40.062,376.56L63.591,367.372Z" style="fill:#ababab;"/></g><g transform="matrix(0.941046,0,0,1.06052,383.841,-376.118)"><ellipse cx="62.351" cy="432.444" rx="7.97" ry="7.072" style="fill:#6c6c6c;"/></g><g transform="matrix(0.941046,0,0,1.06052,437.4,-375.607)"><ellipse cx="62.351" cy="432.444" rx="7.97" ry="7.072" style="fill:#6c6c6c;"/></g><g transform="matrix(1,0,0,1,299.614,-327.733)"><text x="165.214px" y="379.91px" style="font-family:'Arial-BoldMT', 'Arial', sans-serif;font-weight:700;font-size:24px;fill:#fff;">19</text></g></g><g transform="matrix(1,0,0,1.0049,-0.389713,-2.08102)"><path d="M543.39,265.778L571.36,227.963" style="fill:none;stroke:#000;stroke-width:2.99px;"/></g><path d="M545.639,353.137L569.918,387.45" style="fill:none;stroke:#000;stroke-width:3px;"/></g></svg>