<?xml version="1.0" encoding="UTF-8" standalone="no"?>
<!DOCTYPE svg PUBLIC "-//W3C//DTD SVG 1.1//EN" "http://www.w3.org/Graphics/SVG/1.1/DTD/svg11.dtd">
<svg width="100%" height="100%" viewBox="0 0 1580 720" version="1.1" xmlns="http://www.w3.org/2000/svg" xmlns:xlink="http://www.w3.org/1999/xlink" xml:space="preserve" xmlns:serif="http://www.serif.com/" style="fill-rule:evenodd;clip-rule:evenodd;stroke-linecap:round;stroke-linejoin:round;stroke-miterlimit:1.5;">
    <g id="Belt" transform="matrix(1.70269,0,0,1.11668,2.06228,173.387)">
        <g transform="matrix(0.778963,0,0,1.36909,19.4425,-67.7697)">
            <rect x="41.717" y="180.255" width="61.286" height="11.126" style="fill:rgb(147,147,147);"/>
        </g>
        <g transform="matrix(0.778963,0,0,1.36909,76.1857,-68.5067)">
            <rect x="41.717" y="180.255" width="61.286" height="11.126" style="fill:rgb(147,147,147);"/>
        </g>
        <g transform="matrix(0.325412,0.208662,-0.879499,0.563957,315.512,67.4477)">
            <rect x="41.717" y="180.255" width="61.286" height="11.126" style="fill:rgb(147,147,147);"/>
        </g>
        <g transform="matrix(-2.48382e-17,0.239385,-1.03043,2.10685e-17,382.104,190.498)">
            <rect x="41.717" y="180.255" width="61.286" height="11.126" style="fill:rgb(147,147,147);"/>
        </g>
        <g transform="matrix(-0.298078,0.2009,-0.930076,-0.567401,370.46,317.421)">
            <rect x="41.717" y="180.255" width="61.286" height="11.126" style="fill:rgb(147,147,147);"/>
        </g>
        <g transform="matrix(0.778963,0,0,1.36909,-36.9905,-66.5163)">
            <rect x="41.717" y="180.255" width="61.286" height="11.126" style="fill:rgb(147,147,147);"/>
        </g>
        <g transform="matrix(0.778963,0,0,1.12331,20.3282,21.8413)">
            <rect x="41.717" y="180.255" width="61.286" height="11.126" style="fill:rgb(147,147,147);"/>
        </g>
        <g transform="matrix(0.778963,0,0,1.12331,77.0714,21.2367)">
            <rect x="41.717" y="180.255" width="61.286" height="11.126" style="fill:rgb(147,147,147);"/>
        </g>
        <g transform="matrix(0.778963,0,0,1.12331,-36.1048,22.8697)">
            <rect x="41.717" y="180.255" width="61.286" height="11.126" style="fill:rgb(147,147,147);"/>
        </g>
    </g>
    <g id="Infoanzeige" transform="matrix(1.45856,0,0,1.45856,62.3604,41.687)">
        <g transform="matrix(1.27386,0,0,1.64286,-94.0986,-152.929)">
            <rect x="359.224" y="190.016" width="116.253" height="71.362" style="fill:none;stroke:black;stroke-width:1.4px;"/>
        </g>
        <g transform="matrix(1.00393,0,0,1,0.0633227,-17.644)">
            <text x="369.762px" y="195.92px" style="font-family:'ArialMT', 'Arial', sans-serif;font-size:12px;">Brief</text>
            <text x="369.762px" y="210.32px" style="font-family:'ArialMT', 'Arial', sans-serif;font-size:12px;">64285 Darmstadt</text>
            <text x="369.762px" y="224.72px" style="font-family:'ArialMT', 'Arial', sans-serif;font-size:12px;">Deutschland</text>
            <text x="369.762px" y="239.12px" style="font-family:'ArialMT', 'Arial', sans-serif;font-size:12px;">Faktor</text>
            <text x="369.762px" y="253.52px" style="font-family:'ArialMT', 'Arial', sans-serif;font-size:12px;">Faktor</text>
            <text x="369.762px" y="267.92px" style="font-family:'ArialMT', 'Arial', sans-serif;font-size:12px;">Faktor</text>
            <text x="369.762px" y="282.32px" style="font-family:'ArialMT', 'Arial', sans-serif;font-size:12px;">Faktor</text>
        </g>
    </g>
    <g id="LKW-3" serif:id="LKW 3" transform="matrix(1.16636,0,0,1.16373,340.717,22.6637)">
        <g transform="matrix(1,0,0,1,381.687,-343.496)">
            <rect x="70.883" y="368.221" width="57.798" height="40.656" style="fill:rgb(78,141,244);"/>
        </g>
        <g transform="matrix(1.03816,0,0,1,375.317,-347.805)">
            <rect x="47.918" y="414.592" width="80.926" height="6.778" style="fill:rgb(108,108,108);"/>
        </g>
        <g transform="matrix(1.16486,0,0,1.4854,375.008,-538.15)">
            <rect x="42.601" y="387.82" width="21.649" height="18.344" style="fill:rgb(171,171,171);"/>
        </g>
        <g transform="matrix(1.03254,0,0,1.29313,383.84,-450.717)">
            <path d="M63.591,367.372L63.591,376.56L40.062,376.56L63.591,367.372Z" style="fill:rgb(171,171,171);"/>
        </g>
        <g transform="matrix(0.941046,0,0,1.06052,383.841,-376.118)">
            <ellipse cx="62.351" cy="432.444" rx="7.97" ry="7.072" style="fill:rgb(108,108,108);"/>
        </g>
        <g transform="matrix(0.941046,0,0,1.06052,437.4,-375.607)">
            <ellipse cx="62.351" cy="432.444" rx="7.97" ry="7.072" style="fill:rgb(108,108,108);"/>
        </g>
        <g transform="matrix(1,0,0,1,309.646,-327.733)">
            <text x="165.214px" y="379.91px" style="font-family:'Arial-BoldMT', 'Arial', sans-serif;font-weight:700;font-size:24px;fill:white;">3</text>
        </g>
    </g>
    <g id="LKW-2" serif:id="LKW 2" transform="matrix(1.16636,0,0,1.16373,180.413,22.6637)">
        <g transform="matrix(1,0,0,1,381.687,-343.496)">
            <rect x="70.883" y="368.221" width="57.798" height="40.656" style="fill:rgb(78,141,244);"/>
        </g>
        <g transform="matrix(1.03816,0,0,1,375.317,-347.805)">
            <rect x="47.918" y="414.592" width="80.926" height="6.778" style="fill:rgb(108,108,108);"/>
        </g>
        <g transform="matrix(1.16486,0,0,1.4854,375.008,-538.15)">
            <rect x="42.601" y="387.82" width="21.649" height="18.344" style="fill:rgb(171,171,171);"/>
        </g>
        <g transform="matrix(1.03254,0,0,1.29313,383.84,-450.717)">
            <path d="M63.591,367.372L63.591,376.56L40.062,376.56L63.591,367.372Z" style="fill:rgb(171,171,171);"/>
        </g>
        <g transform="matrix(0.941046,0,0,1.06052,383.841,-376.118)">
            <ellipse cx="62.351" cy="432.444" rx="7.97" ry="7.072" style="fill:rgb(108,108,108);"/>
        </g>
        <g transform="matrix(0.941046,0,0,1.06052,437.4,-375.607)">
            <ellipse cx="62.351" cy="432.444" rx="7.97" ry="7.072" style="fill:rgb(108,108,108);"/>
        </g>
        <g transform="matrix(1,0,0,1,309.887,-327.733)">
            <text x="165.214px" y="379.91px" style="font-family:'Arial-BoldMT', 'Arial', sans-serif;font-weight:700;font-size:24px;fill:white;">2</text>
        </g>
    </g>
    <g id="LKW-1" serif:id="LKW 1" transform="matrix(1.16636,0,0,1.16373,20.1084,22.6637)">
        <g transform="matrix(1,0,0,1,381.687,-343.496)">
            <rect x="70.883" y="368.221" width="57.798" height="40.656" style="fill:rgb(78,141,244);"/>
        </g>
        <g transform="matrix(1.03816,0,0,1,375.317,-347.805)">
            <rect x="47.918" y="414.592" width="80.926" height="6.778" style="fill:rgb(108,108,108);"/>
        </g>
        <g transform="matrix(1.16486,0,0,1.4854,375.008,-538.15)">
            <rect x="42.601" y="387.82" width="21.649" height="18.344" style="fill:rgb(171,171,171);"/>
        </g>
        <g transform="matrix(1.03254,0,0,1.29313,383.84,-450.717)">
            <path d="M63.591,367.372L63.591,376.56L40.062,376.56L63.591,367.372Z" style="fill:rgb(171,171,171);"/>
        </g>
        <g transform="matrix(0.941046,0,0,1.06052,383.841,-376.118)">
            <ellipse cx="62.351" cy="432.444" rx="7.97" ry="7.072" style="fill:rgb(108,108,108);"/>
        </g>
        <g transform="matrix(0.941046,0,0,1.06052,437.4,-375.607)">
            <ellipse cx="62.351" cy="432.444" rx="7.97" ry="7.072" style="fill:rgb(108,108,108);"/>
        </g>
        <g transform="matrix(1,0,0,1,310.584,-327.733)">
            <text x="165.214px" y="379.91px" style="font-family:'Arial-BoldMT', 'Arial', sans-serif;font-weight:700;font-size:24px;fill:white;">1</text>
        </g>
    </g>
    <g id="LKW-11" serif:id="LKW 11" transform="matrix(1.16636,0,0,1.16373,658.634,551.088)">
        <g transform="matrix(1,0,0,1,381.687,-343.496)">
            <rect x="70.883" y="368.221" width="57.798" height="40.656" style="fill:rgb(78,141,244);"/>
        </g>
        <g transform="matrix(1.03816,0,0,1,375.317,-347.805)">
            <rect x="47.918" y="414.592" width="80.926" height="6.778" style="fill:rgb(108,108,108);"/>
        </g>
        <g transform="matrix(1.16486,0,0,1.4854,375.008,-538.15)">
            <rect x="42.601" y="387.82" width="21.649" height="18.344" style="fill:rgb(171,171,171);"/>
        </g>
        <g transform="matrix(1.03254,0,0,1.29313,383.84,-450.717)">
            <path d="M63.591,367.372L63.591,376.56L40.062,376.56L63.591,367.372Z" style="fill:rgb(171,171,171);"/>
        </g>
        <g transform="matrix(0.941046,0,0,1.06052,383.841,-376.118)">
            <ellipse cx="62.351" cy="432.444" rx="7.97" ry="7.072" style="fill:rgb(108,108,108);"/>
        </g>
        <g transform="matrix(0.941046,0,0,1.06052,437.4,-375.607)">
            <ellipse cx="62.351" cy="432.444" rx="7.97" ry="7.072" style="fill:rgb(108,108,108);"/>
        </g>
        <g transform="matrix(1,0,0,1,304.572,-327.733)">
            <text x="165.214px" y="379.91px" style="font-family:'Arial-BoldMT', 'Arial', sans-serif;font-weight:700;font-size:24px;fill:white;">1<tspan x="177.237px " y="379.91px ">1</tspan></text>
        </g>
    </g>
    <g id="LKW-12" serif:id="LKW 12" transform="matrix(1.16636,0,0,1.16373,499.531,551.088)">
        <g transform="matrix(1,0,0,1,381.687,-343.496)">
            <rect x="70.883" y="368.221" width="57.798" height="40.656" style="fill:rgb(78,141,244);"/>
        </g>
        <g transform="matrix(1.03816,0,0,1,375.317,-347.805)">
            <rect x="47.918" y="414.592" width="80.926" height="6.778" style="fill:rgb(108,108,108);"/>
        </g>
        <g transform="matrix(1.16486,0,0,1.4854,375.008,-538.15)">
            <rect x="42.601" y="387.82" width="21.649" height="18.344" style="fill:rgb(171,171,171);"/>
        </g>
        <g transform="matrix(1.03254,0,0,1.29313,383.84,-450.717)">
            <path d="M63.591,367.372L63.591,376.56L40.062,376.56L63.591,367.372Z" style="fill:rgb(171,171,171);"/>
        </g>
        <g transform="matrix(0.941046,0,0,1.06052,383.841,-376.118)">
            <ellipse cx="62.351" cy="432.444" rx="7.97" ry="7.072" style="fill:rgb(108,108,108);"/>
        </g>
        <g transform="matrix(0.941046,0,0,1.06052,437.4,-375.607)">
            <ellipse cx="62.351" cy="432.444" rx="7.97" ry="7.072" style="fill:rgb(108,108,108);"/>
        </g>
        <g transform="matrix(1,0,0,1,302.562,-327.733)">
            <text x="165.214px" y="379.91px" style="font-family:'Arial-BoldMT', 'Arial', sans-serif;font-weight:700;font-size:24px;fill:white;">12</text>
        </g>
    </g>
    <g id="LKW-13" serif:id="LKW 13" transform="matrix(1.16636,0,0,1.16373,340.428,551.088)">
        <g transform="matrix(1,0,0,1,381.687,-343.496)">
            <rect x="70.883" y="368.221" width="57.798" height="40.656" style="fill:rgb(78,141,244);"/>
        </g>
        <g transform="matrix(1.03816,0,0,1,375.317,-347.805)">
            <rect x="47.918" y="414.592" width="80.926" height="6.778" style="fill:rgb(108,108,108);"/>
        </g>
        <g transform="matrix(1.16486,0,0,1.4854,375.008,-538.15)">
            <rect x="42.601" y="387.82" width="21.649" height="18.344" style="fill:rgb(171,171,171);"/>
        </g>
        <g transform="matrix(1.03254,0,0,1.29313,383.84,-450.717)">
            <path d="M63.591,367.372L63.591,376.56L40.062,376.56L63.591,367.372Z" style="fill:rgb(171,171,171);"/>
        </g>
        <g transform="matrix(0.941046,0,0,1.06052,383.841,-376.118)">
            <ellipse cx="62.351" cy="432.444" rx="7.97" ry="7.072" style="fill:rgb(108,108,108);"/>
        </g>
        <g transform="matrix(0.941046,0,0,1.06052,437.4,-375.607)">
            <ellipse cx="62.351" cy="432.444" rx="7.97" ry="7.072" style="fill:rgb(108,108,108);"/>
        </g>
        <g transform="matrix(1,0,0,1,302.475,-327.733)">
            <text x="165.214px" y="379.91px" style="font-family:'Arial-BoldMT', 'Arial', sans-serif;font-weight:700;font-size:24px;fill:white;">13</text>
        </g>
    </g>
    <g id="LKW-22" serif:id="LKW 22" transform="matrix(1.16636,0,0,1.16373,181.325,551.088)">
        <g transform="matrix(1,0,0,1,381.687,-343.496)">
            <rect x="70.883" y="368.221" width="57.798" height="40.656" style="fill:rgb(78,141,244);"/>
        </g>
        <g transform="matrix(1.03816,0,0,1,375.317,-347.805)">
            <rect x="47.918" y="414.592" width="80.926" height="6.778" style="fill:rgb(108,108,108);"/>
        </g>
        <g transform="matrix(1.16486,0,0,1.4854,375.008,-538.15)">
            <rect x="42.601" y="387.82" width="21.649" height="18.344" style="fill:rgb(171,171,171);"/>
        </g>
        <g transform="matrix(1.03254,0,0,1.29313,383.84,-450.717)">
            <path d="M63.591,367.372L63.591,376.56L40.062,376.56L63.591,367.372Z" style="fill:rgb(171,171,171);"/>
        </g>
        <g transform="matrix(0.941046,0,0,1.06052,383.841,-376.118)">
            <ellipse cx="62.351" cy="432.444" rx="7.97" ry="7.072" style="fill:rgb(108,108,108);"/>
        </g>
        <g transform="matrix(0.941046,0,0,1.06052,437.4,-375.607)">
            <ellipse cx="62.351" cy="432.444" rx="7.97" ry="7.072" style="fill:rgb(108,108,108);"/>
        </g>
        <g transform="matrix(1,0,0,1,303.213,-327.733)">
            <text x="165.214px" y="379.91px" style="font-family:'Arial-BoldMT', 'Arial', sans-serif;font-weight:700;font-size:24px;fill:white;">22</text>
        </g>
    </g>
    <g id="LKW-23" serif:id="LKW 23" transform="matrix(1.16636,0,0,1.16373,22.2215,551.088)">
        <g transform="matrix(1,0,0,1,381.687,-343.496)">
            <rect x="70.883" y="368.221" width="57.798" height="40.656" style="fill:rgb(78,141,244);"/>
        </g>
        <g transform="matrix(1.03816,0,0,1,375.317,-347.805)">
            <rect x="47.918" y="414.592" width="80.926" height="6.778" style="fill:rgb(108,108,108);"/>
        </g>
        <g transform="matrix(1.16486,0,0,1.4854,375.008,-538.15)">
            <rect x="42.601" y="387.82" width="21.649" height="18.344" style="fill:rgb(171,171,171);"/>
        </g>
        <g transform="matrix(1.03254,0,0,1.29313,383.84,-450.717)">
            <path d="M63.591,367.372L63.591,376.56L40.062,376.56L63.591,367.372Z" style="fill:rgb(171,171,171);"/>
        </g>
        <g transform="matrix(0.941046,0,0,1.06052,383.841,-376.118)">
            <ellipse cx="62.351" cy="432.444" rx="7.97" ry="7.072" style="fill:rgb(108,108,108);"/>
        </g>
        <g transform="matrix(0.941046,0,0,1.06052,437.4,-375.607)">
            <ellipse cx="62.351" cy="432.444" rx="7.97" ry="7.072" style="fill:rgb(108,108,108);"/>
        </g>
        <g transform="matrix(1,0,0,1,303.125,-327.733)">
            <text x="165.214px" y="379.91px" style="font-family:'Arial-BoldMT', 'Arial', sans-serif;font-weight:700;font-size:24px;fill:white;">23</text>
        </g>
    </g>
    <g id="LKW-4" serif:id="LKW 4" transform="matrix(1.16636,0,0,1.16373,501.021,22.6637)">
        <g transform="matrix(1,0,0,1,381.687,-343.496)">
            <rect x="70.883" y="368.221" width="57.798" height="40.656" style="fill:rgb(78,141,244);"/>
        </g>
        <g transform="matrix(1.03816,0,0,1,375.317,-347.805)">
            <rect x="47.918" y="414.592" width="80.926" height="6.778" style="fill:rgb(108,108,108);"/>
        </g>
        <g transform="matrix(1.16486,0,0,1.4854,375.008,-538.15)">
            <rect x="42.601" y="387.82" width="21.649" height="18.344" style="fill:rgb(171,171,171);"/>
        </g>
        <g transform="matrix(1.03254,0,0,1.29313,383.84,-450.717)">
            <path d="M63.591,367.372L63.591,376.56L40.062,376.56L63.591,367.372Z" style="fill:rgb(171,171,171);"/>
        </g>
        <g transform="matrix(0.941046,0,0,1.06052,383.841,-376.118)">
            <ellipse cx="62.351" cy="432.444" rx="7.97" ry="7.072" style="fill:rgb(108,108,108);"/>
        </g>
        <g transform="matrix(0.941046,0,0,1.06052,437.4,-375.607)">
            <ellipse cx="62.351" cy="432.444" rx="7.97" ry="7.072" style="fill:rgb(108,108,108);"/>
        </g>
        <g transform="matrix(1,0,0,1,309.635,-327.733)">
            <text x="165.214px" y="379.91px" style="font-family:'Arial-BoldMT', 'Arial', sans-serif;font-weight:700;font-size:24px;fill:white;">4</text>
        </g>
    </g>
    <g id="LKW-6" serif:id="LKW 6" transform="matrix(1.16636,0,0,1.16373,813.426,64.1659)">
        <g transform="matrix(1,0,0,1,381.687,-343.496)">
            <rect x="70.883" y="368.221" width="57.798" height="40.656" style="fill:rgb(78,141,244);"/>
        </g>
        <g transform="matrix(1.03816,0,0,1,375.317,-347.805)">
            <rect x="47.918" y="414.592" width="80.926" height="6.778" style="fill:rgb(108,108,108);"/>
        </g>
        <g transform="matrix(1.16486,0,0,1.4854,375.008,-538.15)">
            <rect x="42.601" y="387.82" width="21.649" height="18.344" style="fill:rgb(171,171,171);"/>
        </g>
        <g transform="matrix(1.03254,0,0,1.29313,383.84,-450.717)">
            <path d="M63.591,367.372L63.591,376.56L40.062,376.56L63.591,367.372Z" style="fill:rgb(171,171,171);"/>
        </g>
        <g transform="matrix(0.941046,0,0,1.06052,383.841,-376.118)">
            <ellipse cx="62.351" cy="432.444" rx="7.97" ry="7.072" style="fill:rgb(108,108,108);"/>
        </g>
        <g transform="matrix(0.941046,0,0,1.06052,437.4,-375.607)">
            <ellipse cx="62.351" cy="432.444" rx="7.97" ry="7.072" style="fill:rgb(108,108,108);"/>
        </g>
        <g transform="matrix(1,0,0,1,309.5,-327.733)">
            <text x="165.214px" y="379.91px" style="font-family:'Arial-BoldMT', 'Arial', sans-serif;font-weight:700;font-size:24px;fill:white;">6</text>
        </g>
    </g>
    <g id="LKW-5" serif:id="LKW 5" transform="matrix(1.16636,0,0,1.16373,661.326,22.6637)">
        <g transform="matrix(1,0,0,1,381.687,-343.496)">
            <rect x="70.883" y="368.221" width="57.798" height="40.656" style="fill:rgb(78,141,244);"/>
        </g>
        <g transform="matrix(1.03816,0,0,1,375.317,-347.805)">
            <rect x="47.918" y="414.592" width="80.926" height="6.778" style="fill:rgb(108,108,108);"/>
        </g>
        <g transform="matrix(1.16486,0,0,1.4854,375.008,-538.15)">
            <rect x="42.601" y="387.82" width="21.649" height="18.344" style="fill:rgb(171,171,171);"/>
        </g>
        <g transform="matrix(1.03254,0,0,1.29313,383.84,-450.717)">
            <path d="M63.591,367.372L63.591,376.56L40.062,376.56L63.591,367.372Z" style="fill:rgb(171,171,171);"/>
        </g>
        <g transform="matrix(0.941046,0,0,1.06052,383.841,-376.118)">
            <ellipse cx="62.351" cy="432.444" rx="7.97" ry="7.072" style="fill:rgb(108,108,108);"/>
        </g>
        <g transform="matrix(0.941046,0,0,1.06052,437.4,-375.607)">
            <ellipse cx="62.351" cy="432.444" rx="7.97" ry="7.072" style="fill:rgb(108,108,108);"/>
        </g>
        <g transform="matrix(1,0,0,1,309.412,-327.733)">
            <text x="165.214px" y="379.91px" style="font-family:'Arial-BoldMT', 'Arial', sans-serif;font-weight:700;font-size:24px;fill:white;">5</text>
        </g>
    </g>
    <g id="LKW-7" serif:id="LKW 7" transform="matrix(1.16636,0,0,1.16373,894.366,169.509)">
        <g transform="matrix(1,0,0,1,381.687,-343.496)">
            <rect x="70.883" y="368.221" width="57.798" height="40.656" style="fill:rgb(78,141,244);"/>
        </g>
        <g transform="matrix(1.03816,0,0,1,375.317,-347.805)">
            <rect x="47.918" y="414.592" width="80.926" height="6.778" style="fill:rgb(108,108,108);"/>
        </g>
        <g transform="matrix(1.16486,0,0,1.4854,375.008,-538.15)">
            <rect x="42.601" y="387.82" width="21.649" height="18.344" style="fill:rgb(171,171,171);"/>
        </g>
        <g transform="matrix(1.03254,0,0,1.29313,383.84,-450.717)">
            <path d="M63.591,367.372L63.591,376.56L40.062,376.56L63.591,367.372Z" style="fill:rgb(171,171,171);"/>
        </g>
        <g transform="matrix(0.941046,0,0,1.06052,383.841,-376.118)">
            <ellipse cx="62.351" cy="432.444" rx="7.97" ry="7.072" style="fill:rgb(108,108,108);"/>
        </g>
        <g transform="matrix(0.941046,0,0,1.06052,437.4,-375.607)">
            <ellipse cx="62.351" cy="432.444" rx="7.97" ry="7.072" style="fill:rgb(108,108,108);"/>
        </g>
        <g transform="matrix(1,0,0,1,309.605,-327.733)">
            <text x="165.214px" y="379.91px" style="font-family:'Arial-BoldMT', 'Arial', sans-serif;font-weight:700;font-size:24px;fill:white;">7</text>
        </g>
    </g>
    <g id="LKW-8" serif:id="LKW 8" transform="matrix(1.16636,0,0,1.16373,944.366,293.171)">
        <g transform="matrix(1,0,0,1,381.687,-343.496)">
            <rect x="70.883" y="368.221" width="57.798" height="40.656" style="fill:rgb(78,141,244);"/>
        </g>
        <g transform="matrix(1.03816,0,0,1,375.317,-347.805)">
            <rect x="47.918" y="414.592" width="80.926" height="6.778" style="fill:rgb(108,108,108);"/>
        </g>
        <g transform="matrix(1.16486,0,0,1.4854,375.008,-538.15)">
            <rect x="42.601" y="387.82" width="21.649" height="18.344" style="fill:rgb(171,171,171);"/>
        </g>
        <g transform="matrix(1.03254,0,0,1.29313,383.84,-450.717)">
            <path d="M63.591,367.372L63.591,376.56L40.062,376.56L63.591,367.372Z" style="fill:rgb(171,171,171);"/>
        </g>
        <g transform="matrix(0.941046,0,0,1.06052,383.841,-376.118)">
            <ellipse cx="62.351" cy="432.444" rx="7.97" ry="7.072" style="fill:rgb(108,108,108);"/>
        </g>
        <g transform="matrix(0.941046,0,0,1.06052,437.4,-375.607)">
            <ellipse cx="62.351" cy="432.444" rx="7.97" ry="7.072" style="fill:rgb(108,108,108);"/>
        </g>
        <g transform="matrix(1,0,0,1,309.635,-327.733)">
            <text x="165.214px" y="379.91px" style="font-family:'Arial-BoldMT', 'Arial', sans-serif;font-weight:700;font-size:24px;fill:white;">8</text>
        </g>
    </g>
    <g id="LKW-9" serif:id="LKW 9" transform="matrix(1.16636,0,0,1.16373,894.366,408.736)">
        <g transform="matrix(1,0,0,1,381.687,-343.496)">
            <rect x="70.883" y="368.221" width="57.798" height="40.656" style="fill:rgb(78,141,244);"/>
        </g>
        <g transform="matrix(1.03816,0,0,1,375.317,-347.805)">
            <rect x="47.918" y="414.592" width="80.926" height="6.778" style="fill:rgb(108,108,108);"/>
        </g>
        <g transform="matrix(1.16486,0,0,1.4854,375.008,-538.15)">
            <rect x="42.601" y="387.82" width="21.649" height="18.344" style="fill:rgb(171,171,171);"/>
        </g>
        <g transform="matrix(1.03254,0,0,1.29313,383.84,-450.717)">
            <path d="M63.591,367.372L63.591,376.56L40.062,376.56L63.591,367.372Z" style="fill:rgb(171,171,171);"/>
        </g>
        <g transform="matrix(0.941046,0,0,1.06052,383.841,-376.118)">
            <ellipse cx="62.351" cy="432.444" rx="7.97" ry="7.072" style="fill:rgb(108,108,108);"/>
        </g>
        <g transform="matrix(0.941046,0,0,1.06052,437.4,-375.607)">
            <ellipse cx="62.351" cy="432.444" rx="7.97" ry="7.072" style="fill:rgb(108,108,108);"/>
        </g>
        <g transform="matrix(1,0,0,1,309.758,-327.733)">
            <text x="165.214px" y="379.91px" style="font-family:'Arial-BoldMT', 'Arial', sans-serif;font-weight:700;font-size:24px;fill:white;">9</text>
        </g>
    </g>
    <g id="LKW-10" serif:id="LKW 10" transform="matrix(1.16636,0,0,1.16373,813.426,517.068)">
        <g transform="matrix(1,0,0,1,381.687,-343.496)">
            <rect x="70.883" y="368.221" width="57.798" height="40.656" style="fill:rgb(78,141,244);"/>
        </g>
        <g transform="matrix(1.03816,0,0,1,375.317,-347.805)">
            <rect x="47.918" y="414.592" width="80.926" height="6.778" style="fill:rgb(108,108,108);"/>
        </g>
        <g transform="matrix(1.16486,0,0,1.4854,375.008,-538.15)">
            <rect x="42.601" y="387.82" width="21.649" height="18.344" style="fill:rgb(171,171,171);"/>
        </g>
        <g transform="matrix(1.03254,0,0,1.29313,383.84,-450.717)">
            <path d="M63.591,367.372L63.591,376.56L40.062,376.56L63.591,367.372Z" style="fill:rgb(171,171,171);"/>
        </g>
        <g transform="matrix(0.941046,0,0,1.06052,383.841,-376.118)">
            <ellipse cx="62.351" cy="432.444" rx="7.97" ry="7.072" style="fill:rgb(108,108,108);"/>
        </g>
        <g transform="matrix(0.941046,0,0,1.06052,437.4,-375.607)">
            <ellipse cx="62.351" cy="432.444" rx="7.97" ry="7.072" style="fill:rgb(108,108,108);"/>
        </g>
        <g transform="matrix(1,0,0,1,302.551,-327.733)">
            <text x="165.214px" y="379.91px" style="font-family:'Arial-BoldMT', 'Arial', sans-serif;font-weight:700;font-size:24px;fill:white;">10</text>
        </g>
    </g>
    <g transform="matrix(1,0,0,1.0049,11.1634,47.8907)">
        <path d="M543.39,265.778L571.36,227.963" style="fill:none;stroke:black;stroke-width:2.99px;"/>
    </g>
    <g transform="matrix(1,0,0,1,11.5531,49.9717)">
        <path d="M545.639,353.137L569.918,387.45" style="fill:none;stroke:black;stroke-width:3px;"/>
    </g>
    <g transform="matrix(6.11156,0,0,6.11156,-1073.79,-2837.4)">
        <g id="LKW-20" serif:id="LKW 20">
            <text x="210.294px" y="567.408px" style="font-family:'AppleColorEmoji', 'Apple Color Emoji';font-size:12px;">🔙</text>
        </g>
    </g>
    <g id="LKW-21" serif:id="LKW 21" transform="matrix(0.727867,0,0,0.727867,-18.7938,-342.296)">
        <ellipse cx="385.122" cy="597.349" rx="52.68" ry="51.597" style="fill:none;stroke:rgb(255,0,0);stroke-width:10.99px;"/>
        <g transform="matrix(2.30567,0,0,2.30567,-495.942,-774.274)">
            <text x="366.585px" y="599.187px" style="font-family:'Arial-BoldMT', 'Arial', sans-serif;font-weight:700;font-size:12px;">ZOLL</text>
        </g>
    </g>
    <g id="Paket-4" serif:id="Paket 4" transform="matrix(1.52762,0,0,1.59213,47.2289,84.5617)">
        <g transform="matrix(0.561026,0,0,0.587244,117.744,69.8593)">
            <rect x="-18.274" y="91.15" width="87.511" height="80.217" style="fill:rgb(244,197,78);"/>
        </g>
        <g transform="matrix(1,0,0,1,-178.133,-74.1294)">
            <rect x="303.769" y="197.516" width="12.806" height="13.92" style="fill:rgb(255,149,0);"/>
        </g>
    </g>
    <g id="Paket-3" serif:id="Paket 3" transform="matrix(1.52762,0,0,1.59213,-52.7711,84.5617)">
        <g transform="matrix(0.561026,0,0,0.587244,117.744,69.8593)">
            <rect x="-18.274" y="91.15" width="87.511" height="80.217" style="fill:rgb(244,197,78);"/>
        </g>
        <g transform="matrix(1,0,0,1,-178.133,-74.1294)">
            <rect x="303.769" y="197.516" width="12.806" height="13.92" style="fill:rgb(255,149,0);"/>
        </g>
    </g>
    <g id="Paket-2" serif:id="Paket 2" transform="matrix(1.52762,0,0,1.59213,-152.771,84.5617)">
        <g transform="matrix(0.561026,0,0,0.587244,117.744,69.8593)">
            <rect x="-18.274" y="91.15" width="87.511" height="80.217" style="fill:rgb(244,197,78);"/>
        </g>
        <g transform="matrix(1,0,0,1,-178.133,-74.1294)">
            <rect x="303.769" y="197.516" width="12.806" height="13.92" style="fill:rgb(255,149,0);"/>
        </g>
    </g>
    <g id="Paket-1" serif:id="Paket 1" transform="matrix(1.52762,0,0,1.52762,301.348,139.523)">
        <g transform="matrix(0.561026,0,0,0.587244,117.744,69.8593)">
            <rect x="-18.274" y="91.15" width="87.511" height="80.217" style="fill:rgb(244,197,78);"/>
        </g>
        <g transform="matrix(1,0,0,1,-178.133,-74.1294)">
            <rect x="303.769" y="197.516" width="12.806" height="13.92" style="fill:rgb(255,149,0);"/>
        </g>
        <g transform="matrix(0.763517,0,0,0.761796,1.5653,-131.976)">
            <text x="165.214px" y="379.91px" style="font-family:'Arial-BoldMT', 'Arial', sans-serif;font-weight:700;font-size:24px;fill:white;">1</text>
        </g>
    </g>
</svg>
