<svg width="100%" height="100%" viewBox="0 0 800 600" version="1.1" xmlns="http://www.w3.org/2000/svg" xmlns:xlink="http://www.w3.org/1999/xlink" xml:space="preserve" xmlns:serif="http://www.serif.com/" style="fill-rule:evenodd;clip-rule:evenodd;stroke-linecap:round;stroke-linejoin:round;stroke-miterlimit:1.5;">
    <g id="Belt">
        <g transform="matrix(0.778963,0,0,0.660739,19.4425,59.5338)">
            <rect x="41.717" y="180.255" width="61.286" height="11.126" style="fill:rgb(147,147,147);"/>
        </g>
        <g transform="matrix(0.778963,0,0,0.660739,76.1857,59.1781)">
            <rect x="41.717" y="180.255" width="61.286" height="11.126" style="fill:rgb(147,147,147);"/>
        </g>
        <g transform="matrix(0.325412,0.208662,-0.728625,0.467213,288.316,84.8864)">
            <rect x="41.717" y="180.255" width="61.286" height="11.126" style="fill:rgb(147,147,147);"/>
        </g>
        <g transform="matrix(-2.48382e-17,0.239385,-1.03043,2.10685e-17,382.104,190.498)">
            <rect x="41.717" y="180.255" width="61.286" height="11.126" style="fill:rgb(147,147,147);"/>
        </g>
        <g transform="matrix(-0.298078,0.2009,-0.746542,-0.455434,337.377,297.239)">
            <rect x="41.717" y="180.255" width="61.286" height="11.126" style="fill:rgb(147,147,147);"/>
        </g>
        <g transform="matrix(0.778963,0,0,0.660739,-36.9905,60.1387)">
            <rect x="41.717" y="180.255" width="61.286" height="11.126" style="fill:rgb(147,147,147);"/>
        </g>
        <g transform="matrix(0.778963,0,0,0.660739,20.3282,110.792)">
            <rect x="41.717" y="180.255" width="61.286" height="11.126" style="fill:rgb(147,147,147);"/>
        </g>
        <g transform="matrix(0.778963,0,0,0.660739,77.0714,110.437)">
            <rect x="41.717" y="180.255" width="61.286" height="11.126" style="fill:rgb(147,147,147);"/>
        </g>
        <g transform="matrix(0.778963,0,0,0.660739,-36.1048,111.397)">
            <rect x="41.717" y="180.255" width="61.286" height="11.126" style="fill:rgb(147,147,147);"/>
        </g>
    </g>
    <g id="Paket-4" serif:id="Paket 4">
        <g id="Paket-41" serif:id="Paket 4" transform="matrix(0.561026,0,0,0.587244,-8.02178,70.7326)">
            <rect x="-18.274" y="91.15" width="87.511" height="80.217" style="fill:rgb(244,197,78);"/>
        </g>
        <g transform="matrix(1,0,0,1,-303.898,-73.2561)">
            <rect x="303.769" y="197.516" width="12.806" height="13.92" style="fill:rgb(255,149,0);"/>
        </g>
    </g>
    <g id="Paket-3" serif:id="Paket 3">
        <g transform="matrix(0.561026,0,0,0.587244,56.3381,69.8593)">
            <rect x="-18.274" y="91.15" width="87.511" height="80.217" style="fill:rgb(244,197,78);"/>
        </g>
        <g transform="matrix(1,0,0,1,-239.538,-74.1294)">
            <rect x="303.769" y="197.516" width="12.806" height="13.92" style="fill:rgb(255,149,0);"/>
        </g>
    </g>
    <g id="Paket-2" serif:id="Paket 2">
        <g transform="matrix(0.561026,0,0,0.587244,117.744,69.8593)">
            <rect x="-18.274" y="91.15" width="87.511" height="80.217" style="fill:rgb(244,197,78);"/>
        </g>
        <g transform="matrix(1,0,0,1,-178.133,-74.1294)">
            <rect x="303.769" y="197.516" width="12.806" height="13.92" style="fill:rgb(255,149,0);"/>
        </g>
    </g>
    <g id="Paket-1" serif:id="Paket 1">
        <g transform="matrix(0.561026,0,0,0.587244,296.266,143.333)">
            <rect x="-18.274" y="91.15" width="87.511" height="80.217" style="fill:rgb(244,197,78);"/>
        </g>
        <g transform="matrix(1,0,0,1,0.390128,-0.655903)">
            <rect x="303.769" y="197.516" width="12.806" height="13.92" style="fill:rgb(255,149,0);"/>
        </g>
    </g>
    <g id="LKW-18" serif:id="LKW 18">
        <rect x="70.883" y="368.221" width="57.798" height="40.656" style="fill:rgb(78,141,244);"/>
        <g transform="matrix(1.03816,0,0,1,-6.36987,-4.30865)">
            <rect x="47.918" y="414.592" width="80.926" height="6.778" style="fill:rgb(108,108,108);"/>
        </g>
        <g transform="matrix(1.16486,0,0,1.4854,-6.67904,-194.654)">
            <rect x="42.601" y="387.82" width="21.649" height="18.344" style="fill:rgb(171,171,171);"/>
        </g>
        <g transform="matrix(1.03254,0,0,1.29313,2.15253,-107.221)">
            <path d="M63.591,367.372L63.591,376.56L40.062,376.56L63.591,367.372Z" style="fill:rgb(171,171,171);"/>
        </g>
        <g transform="matrix(0.941046,0,0,1.06052,2.15349,-32.6224)">
            <ellipse cx="62.351" cy="432.444" rx="7.97" ry="7.072" style="fill:rgb(108,108,108);"/>
        </g>
        <g transform="matrix(0.941046,0,0,1.06052,55.7122,-32.1111)">
            <ellipse cx="62.351" cy="432.444" rx="7.97" ry="7.072" style="fill:rgb(108,108,108);"/>
        </g>
        <g transform="matrix(1,0,0,1,-82.0734,15.7629)">
            <text x="165.214px" y="379.91px" style="font-family:'Arial-BoldMT', 'Arial', sans-serif;font-weight:700;font-size:24px;fill:white;">18</text>
        </g>
    </g>
    <g id="LKW-17" serif:id="LKW 17">
        <g transform="matrix(1,0,0,1,114.891,55.3114)">
            <rect x="70.883" y="368.221" width="57.798" height="40.656" style="fill:rgb(78,141,244);"/>
        </g>
        <g transform="matrix(1.03816,0,0,1,108.522,51.0027)">
            <rect x="47.918" y="414.592" width="80.926" height="6.778" style="fill:rgb(108,108,108);"/>
        </g>
        <g transform="matrix(1.16486,0,0,1.4854,108.212,-139.343)">
            <rect x="42.601" y="387.82" width="21.649" height="18.344" style="fill:rgb(171,171,171);"/>
        </g>
        <g transform="matrix(1.03254,0,0,1.29313,117.044,-51.9095)">
            <path d="M63.591,367.372L63.591,376.56L40.062,376.56L63.591,367.372Z" style="fill:rgb(171,171,171);"/>
        </g>
        <g transform="matrix(0.941046,0,0,1.06052,117.045,22.689)">
            <ellipse cx="62.351" cy="432.444" rx="7.97" ry="7.072" style="fill:rgb(108,108,108);"/>
        </g>
        <g transform="matrix(0.941046,0,0,1.06052,170.604,23.2002)">
            <ellipse cx="62.351" cy="432.444" rx="7.97" ry="7.072" style="fill:rgb(108,108,108);"/>
        </g>
        <g transform="matrix(1,0,0,1,32.818,71.0743)">
            <text x="165.214px" y="379.91px" style="font-family:'Arial-BoldMT', 'Arial', sans-serif;font-weight:700;font-size:24px;fill:white;">17</text>
        </g>
    </g>
    <g id="LKW-16" serif:id="LKW 16">
        <g transform="matrix(1,0,0,1,231.572,99.3588)">
            <rect x="70.883" y="368.221" width="57.798" height="40.656" style="fill:rgb(78,141,244);"/>
        </g>
        <g transform="matrix(1.03816,0,0,1,225.202,95.0502)">
            <rect x="47.918" y="414.592" width="80.926" height="6.778" style="fill:rgb(108,108,108);"/>
        </g>
        <g transform="matrix(1.16486,0,0,1.4854,224.893,-95.2953)">
            <rect x="42.601" y="387.82" width="21.649" height="18.344" style="fill:rgb(171,171,171);"/>
        </g>
        <g transform="matrix(1.03254,0,0,1.29313,233.724,-7.86211)">
            <path d="M63.591,367.372L63.591,376.56L40.062,376.56L63.591,367.372Z" style="fill:rgb(171,171,171);"/>
        </g>
        <g transform="matrix(0.941046,0,0,1.06052,233.725,66.7364)">
            <ellipse cx="62.351" cy="432.444" rx="7.97" ry="7.072" style="fill:rgb(108,108,108);"/>
        </g>
        <g transform="matrix(0.941046,0,0,1.06052,287.284,67.2477)">
            <ellipse cx="62.351" cy="432.444" rx="7.97" ry="7.072" style="fill:rgb(108,108,108);"/>
        </g>
        <g transform="matrix(1,0,0,1,149.498,115.122)">
            <text x="165.214px" y="379.91px" style="font-family:'Arial-BoldMT', 'Arial', sans-serif;font-weight:700;font-size:24px;fill:white;">16</text>
        </g>
    </g>
    <g id="LKW-15" serif:id="LKW 15">
        <g transform="matrix(1,0,0,1,381.78,92.8167)">
            <rect x="70.883" y="368.221" width="57.798" height="40.656" style="fill:rgb(78,141,244);"/>
        </g>
        <g transform="matrix(1.03816,0,0,1,375.41,88.5081)">
            <rect x="47.918" y="414.592" width="80.926" height="6.778" style="fill:rgb(108,108,108);"/>
        </g>
        <g transform="matrix(1.16486,0,0,1.4854,375.101,-101.837)">
            <rect x="42.601" y="387.82" width="21.649" height="18.344" style="fill:rgb(171,171,171);"/>
        </g>
        <g transform="matrix(1.03254,0,0,1.29313,383.933,-14.4042)">
            <path d="M63.591,367.372L63.591,376.56L40.062,376.56L63.591,367.372Z" style="fill:rgb(171,171,171);"/>
        </g>
        <g transform="matrix(0.941046,0,0,1.06052,383.934,60.1943)">
            <ellipse cx="62.351" cy="432.444" rx="7.97" ry="7.072" style="fill:rgb(108,108,108);"/>
        </g>
        <g transform="matrix(0.941046,0,0,1.06052,437.492,60.7056)">
            <ellipse cx="62.351" cy="432.444" rx="7.97" ry="7.072" style="fill:rgb(108,108,108);"/>
        </g>
        <g transform="matrix(1,0,0,1,299.707,108.58)">
            <text x="165.214px" y="379.91px" style="font-family:'Arial-BoldMT', 'Arial', sans-serif;font-weight:700;font-size:24px;fill:white;">15</text>
        </g>
    </g>
    <g id="LKW-14" serif:id="LKW 14">
        <g transform="matrix(1,0,0,1,457.182,6.27678)">
            <rect x="70.883" y="368.221" width="57.798" height="40.656" style="fill:rgb(78,141,244);"/>
        </g>
        <g transform="matrix(1.03816,0,0,1,450.812,1.96813)">
            <rect x="47.918" y="414.592" width="80.926" height="6.778" style="fill:rgb(108,108,108);"/>
        </g>
        <g transform="matrix(1.16486,0,0,1.4854,450.503,-188.377)">
            <rect x="42.601" y="387.82" width="21.649" height="18.344" style="fill:rgb(171,171,171);"/>
        </g>
        <g transform="matrix(1.03254,0,0,1.29313,459.334,-100.944)">
            <path d="M63.591,367.372L63.591,376.56L40.062,376.56L63.591,367.372Z" style="fill:rgb(171,171,171);"/>
        </g>
        <g transform="matrix(0.941046,0,0,1.06052,459.335,-26.3456)">
            <ellipse cx="62.351" cy="432.444" rx="7.97" ry="7.072" style="fill:rgb(108,108,108);"/>
        </g>
        <g transform="matrix(0.941046,0,0,1.06052,512.894,-25.8344)">
            <ellipse cx="62.351" cy="432.444" rx="7.97" ry="7.072" style="fill:rgb(108,108,108);"/>
        </g>
        <g transform="matrix(1,0,0,1,375.109,22.0397)">
            <text x="165.214px" y="379.91px" style="font-family:'Arial-BoldMT', 'Arial', sans-serif;font-weight:700;font-size:24px;fill:white;">14</text>
        </g>
    </g>
    <g id="Infoanzeige">
        <rect x="359.224" y="190.016" width="116.253" height="71.362" style="fill:none;stroke:black;stroke-width:3px;"/>
        <g transform="matrix(1,0,0,1,-2.57553,13.3198)">
            <text x="369.762px" y="195.92px" style="font-family:'ArialMT', 'Arial', sans-serif;font-size:12px;">Brief</text>
            <text x="369.762px" y="208.313px" style="font-family:'ArialMT', 'Arial', sans-serif;font-size:12px;">64285 Darmstadt</text>
            <text x="369.762px" y="220.705px" style="font-family:'ArialMT', 'Arial', sans-serif;font-size:12px;">Deutschland</text>
        </g>
        <path d="M340.163,196.674L352.889,191.456" style="fill:none;stroke:black;stroke-width:3px;"/>
        <g transform="matrix(0.949711,-0.0444393,-0.0444393,0.96073,28.0359,24.7749)">
            <path d="M339.345,246.869L354.625,260.372" style="fill:none;stroke:black;stroke-width:3.29px;"/>
        </g>
    </g>
    <g id="LKW-13" serif:id="LKW 13">
        <g transform="matrix(1,0,0,1,513.946,-86.1081)">
            <rect x="70.883" y="368.221" width="57.798" height="40.656" style="fill:rgb(78,141,244);"/>
        </g>
        <g transform="matrix(1.03816,0,0,1,507.576,-90.4167)">
            <rect x="47.918" y="414.592" width="80.926" height="6.778" style="fill:rgb(108,108,108);"/>
        </g>
        <g transform="matrix(1.16486,0,0,1.4854,507.267,-280.762)">
            <rect x="42.601" y="387.82" width="21.649" height="18.344" style="fill:rgb(171,171,171);"/>
        </g>
        <g transform="matrix(1.03254,0,0,1.29313,516.098,-193.329)">
            <path d="M63.591,367.372L63.591,376.56L40.062,376.56L63.591,367.372Z" style="fill:rgb(171,171,171);"/>
        </g>
        <g transform="matrix(0.941046,0,0,1.06052,516.099,-118.73)">
            <ellipse cx="62.351" cy="432.444" rx="7.97" ry="7.072" style="fill:rgb(108,108,108);"/>
        </g>
        <g transform="matrix(0.941046,0,0,1.06052,569.658,-118.219)">
            <ellipse cx="62.351" cy="432.444" rx="7.97" ry="7.072" style="fill:rgb(108,108,108);"/>
        </g>
        <g transform="matrix(1,0,0,1,431.873,-70.3451)">
            <text x="165.214px" y="379.91px" style="font-family:'Arial-BoldMT', 'Arial', sans-serif;font-weight:700;font-size:24px;fill:white;">13</text>
        </g>
    </g>
    <g id="LKW-12" serif:id="LKW 12">
        <g transform="matrix(1,0,0,1,521.137,-183.714)">
            <rect x="70.883" y="368.221" width="57.798" height="40.656" style="fill:rgb(78,141,244);"/>
        </g>
        <g transform="matrix(1.03816,0,0,1,514.767,-188.023)">
            <rect x="47.918" y="414.592" width="80.926" height="6.778" style="fill:rgb(108,108,108);"/>
        </g>
        <g transform="matrix(1.16486,0,0,1.4854,514.458,-378.368)">
            <rect x="42.601" y="387.82" width="21.649" height="18.344" style="fill:rgb(171,171,171);"/>
        </g>
        <g transform="matrix(1.03254,0,0,1.29313,523.29,-290.935)">
            <path d="M63.591,367.372L63.591,376.56L40.062,376.56L63.591,367.372Z" style="fill:rgb(171,171,171);"/>
        </g>
        <g transform="matrix(0.941046,0,0,1.06052,523.291,-216.336)">
            <ellipse cx="62.351" cy="432.444" rx="7.97" ry="7.072" style="fill:rgb(108,108,108);"/>
        </g>
        <g transform="matrix(0.941046,0,0,1.06052,576.849,-215.825)">
            <ellipse cx="62.351" cy="432.444" rx="7.97" ry="7.072" style="fill:rgb(108,108,108);"/>
        </g>
        <g transform="matrix(1,0,0,1,439.064,-167.951)">
            <text x="165.214px" y="379.91px" style="font-family:'Arial-BoldMT', 'Arial', sans-serif;font-weight:700;font-size:24px;fill:white;">12</text>
        </g>
    </g>
    <g id="LKW-11" serif:id="LKW 11">
        <g transform="matrix(1,0,0,1,492.832,-282.681)">
            <rect x="70.883" y="368.221" width="57.798" height="40.656" style="fill:rgb(78,141,244);"/>
        </g>
        <g transform="matrix(1.03816,0,0,1,486.462,-286.989)">
            <rect x="47.918" y="414.592" width="80.926" height="6.778" style="fill:rgb(108,108,108);"/>
        </g>
        <g transform="matrix(1.16486,0,0,1.4854,486.153,-477.335)">
            <rect x="42.601" y="387.82" width="21.649" height="18.344" style="fill:rgb(171,171,171);"/>
        </g>
        <g transform="matrix(1.03254,0,0,1.29313,494.985,-389.902)">
            <path d="M63.591,367.372L63.591,376.56L40.062,376.56L63.591,367.372Z" style="fill:rgb(171,171,171);"/>
        </g>
        <g transform="matrix(0.941046,0,0,1.06052,494.986,-315.303)">
            <ellipse cx="62.351" cy="432.444" rx="7.97" ry="7.072" style="fill:rgb(108,108,108);"/>
        </g>
        <g transform="matrix(0.941046,0,0,1.06052,548.544,-314.792)">
            <ellipse cx="62.351" cy="432.444" rx="7.97" ry="7.072" style="fill:rgb(108,108,108);"/>
        </g>
        <g transform="matrix(1,0,0,1,410.759,-266.918)">
            <text x="165.214px" y="379.91px" style="font-family:'Arial-BoldMT', 'Arial', sans-serif;font-weight:700;font-size:24px;fill:white;">1<tspan x="177.237px " y="379.91px ">1</tspan></text>
        </g>
    </g>
    <g id="LKW-10" serif:id="LKW 10">
        <g transform="matrix(1,0,0,1,381.687,-343.496)">
            <rect x="70.883" y="368.221" width="57.798" height="40.656" style="fill:rgb(78,141,244);"/>
        </g>
        <g transform="matrix(1.03816,0,0,1,375.317,-347.805)">
            <rect x="47.918" y="414.592" width="80.926" height="6.778" style="fill:rgb(108,108,108);"/>
        </g>
        <g transform="matrix(1.16486,0,0,1.4854,375.008,-538.15)">
            <rect x="42.601" y="387.82" width="21.649" height="18.344" style="fill:rgb(171,171,171);"/>
        </g>
        <g transform="matrix(1.03254,0,0,1.29313,383.84,-450.717)">
            <path d="M63.591,367.372L63.591,376.56L40.062,376.56L63.591,367.372Z" style="fill:rgb(171,171,171);"/>
        </g>
        <g transform="matrix(0.941046,0,0,1.06052,383.841,-376.118)">
            <ellipse cx="62.351" cy="432.444" rx="7.97" ry="7.072" style="fill:rgb(108,108,108);"/>
        </g>
        <g transform="matrix(0.941046,0,0,1.06052,437.4,-375.607)">
            <ellipse cx="62.351" cy="432.444" rx="7.97" ry="7.072" style="fill:rgb(108,108,108);"/>
        </g>
        <g transform="matrix(1,0,0,1,299.614,-327.733)">
            <text x="165.214px" y="379.91px" style="font-family:'Arial-BoldMT', 'Arial', sans-serif;font-weight:700;font-size:24px;fill:white;">10</text>
        </g>
    </g>
</svg>
